name Walk1.mot
datacolumns 19
datarows 20
range 1.95700000 1.97600000
endheader

                time	   L_ground_force_vx	   L_ground_force_vy	   L_ground_force_vz	   L_ground_force_px	   L_ground_force_py	   L_ground_force_pz	   R_ground_force_vx	   R_ground_force_vy	   R_ground_force_vz	   R_ground_force_px	   R_ground_force_py	   R_ground_force_pz	   L_ground_torque_x	   L_ground_torque_y	   L_ground_torque_z	   R_ground_torque_x	   R_ground_torque_y	   R_ground_torque_z	
          1.95700000	          0.00000000	          0.00000000	          0.00000000	          0.00000000	          0.00000000	          0.00000000	          3.41548713	        705.49157823	         43.70697176	         -0.26033116	          0.00000000	         -0.03666374	          0.00000000	          0.00000000	          0.00000000	          0.00000000	          0.70137990	          0.00000000	
          1.95800000	          0.00000000	          0.00000000	          0.00000000	          0.00000000	          0.00000000	          0.00000000	          3.75468755	        706.59059152	         43.74063186	         -0.25997238	          0.00000000	         -0.03668118	          0.00000000	          0.00000000	          0.00000000	          0.00000000	          0.72153612	          0.00000000	
          1.95900000	          0.00000000	          0.00000000	          0.00000000	          0.00000000	          0.00000000	          0.00000000	          4.06662794	        707.72620729	         43.76148985	         -0.25959387	          0.00000000	         -0.03672115	          0.00000000	          0.00000000	          0.00000000	          0.00000000	          0.74093504	          0.00000000	
          1.96000000	          0.00000000	          0.00000000	          0.00000000	          0.00000000	          0.00000000	          0.00000000	          4.35810270	        708.85939079	         43.77086976	         -0.25919726	          0.00000000	         -0.03676160	          0.00000000	          0.00000000	          0.00000000	          0.00000000	          0.76024344	          0.00000000	
          1.96100000	          0.00000000	          0.00000000	          0.00000000	          0.00000000	          0.00000000	          0.00000000	          4.63716405	        709.94155846	         43.77706503	         -0.25879632	          0.00000000	         -0.03677846	          0.00000000	          0.00000000	          0.00000000	          0.00000000	          0.77546887	          0.00000000	
          1.96200000	          0.00000000	          0.00000000	          0.00000000	          0.00000000	          0.00000000	          0.00000000	          4.91631526	        710.94559075	         43.78084298	         -0.25839897	          0.00000000	         -0.03675322	          0.00000000	          0.00000000	          0.00000000	          0.00000000	          0.78099895	          0.00000000	
          1.96300000	          0.00000000	          0.00000000	          0.00000000	          0.00000000	          0.00000000	          0.00000000	          5.20934042	        711.87606019	         43.77473294	         -0.25800446	          0.00000000	         -0.03668076	          0.00000000	          0.00000000	          0.00000000	          0.00000000	          0.77736195	          0.00000000	
          1.96400000	          0.00000000	          0.00000000	          0.00000000	          0.00000000	          0.00000000	          0.00000000	          5.51803162	        712.75994483	         43.75826817	         -0.25761430	          0.00000000	         -0.03657427	          0.00000000	          0.00000000	          0.00000000	          0.00000000	          0.77328177	          0.00000000	
          1.96500000	          0.00000000	          0.00000000	          0.00000000	          0.00000000	          0.00000000	          0.00000000	          5.84064780	        713.65357195	         43.73910454	         -0.25723376	          0.00000000	         -0.03645699	          0.00000000	          0.00000000	          0.00000000	          0.00000000	          0.77780330	          0.00000000	
          1.96600000	          0.00000000	          0.00000000	          0.00000000	          0.00000000	          0.00000000	          0.00000000	          6.18744249	        714.62817554	         43.71865416	         -0.25686595	          0.00000000	         -0.03635884	          0.00000000	          0.00000000	          0.00000000	          0.00000000	          0.79090559	          0.00000000	
          1.96700000	          0.00000000	          0.00000000	          0.00000000	          0.00000000	          0.00000000	          0.00000000	          6.56547694	        715.71407492	         43.68995846	         -0.25650947	          0.00000000	         -0.03631230	          0.00000000	          0.00000000	          0.00000000	          0.00000000	          0.80263620	          0.00000000	
          1.96800000	          0.00000000	          0.00000000	          0.00000000	          0.00000000	          0.00000000	          0.00000000	          6.95809038	        716.88733729	         43.65043055	         -0.25615949	          0.00000000	         -0.03633542	          0.00000000	          0.00000000	          0.00000000	          0.00000000	          0.80319666	          0.00000000	
          1.96900000	          0.00000000	          0.00000000	          0.00000000	          0.00000000	          0.00000000	          0.00000000	          7.34266111	        718.12264171	         43.60714436	         -0.25581027	          0.00000000	         -0.03641549	          0.00000000	          0.00000000	          0.00000000	          0.00000000	          0.79169984	          0.00000000	
          1.97000000	          0.00000000	          0.00000000	          0.00000000	          0.00000000	          0.00000000	          0.00000000	          7.71810923	        719.41081511	         43.56658699	         -0.25545891	          0.00000000	         -0.03650891	          0.00000000	          0.00000000	          0.00000000	          0.00000000	          0.77422658	          0.00000000	
          1.97100000	          0.00000000	          0.00000000	          0.00000000	          0.00000000	          0.00000000	          0.00000000	          8.10063667	        720.72304448	         43.52198585	         -0.25510641	          0.00000000	         -0.03656384	          0.00000000	          0.00000000	          0.00000000	          0.00000000	          0.75775826	          0.00000000	
          1.97200000	          0.00000000	          0.00000000	          0.00000000	          0.00000000	          0.00000000	          0.00000000	          8.50595174	        722.01019843	         43.45567660	         -0.25475612	          0.00000000	         -0.03654901	          0.00000000	          0.00000000	          0.00000000	          0.00000000	          0.74590353	          0.00000000	
          1.97300000	          0.00000000	          0.00000000	          0.00000000	          0.00000000	          0.00000000	          0.00000000	          8.94162242	        723.24239969	         43.35839435	         -0.25441408	          0.00000000	         -0.03646229	          0.00000000	          0.00000000	          0.00000000	          0.00000000	          0.73830277	          0.00000000	
          1.97400000	          0.00000000	          0.00000000	          0.00000000	          0.00000000	          0.00000000	          0.00000000	          9.40791580	        724.42169309	         43.24627042	         -0.25408350	          0.00000000	         -0.03632055	          0.00000000	          0.00000000	          0.00000000	          0.00000000	          0.73370795	          0.00000000	
          1.97500000	          0.00000000	          0.00000000	          0.00000000	          0.00000000	          0.00000000	          0.00000000	          9.89891457	        725.55540211	         43.15189850	         -0.25375577	          0.00000000	         -0.03614941	          0.00000000	          0.00000000	          0.00000000	          0.00000000	          0.73355284	          0.00000000	
          1.97600000	          0.00000000	          0.00000000	          0.00000000	          0.00000000	          0.00000000	          0.00000000	         10.39968478	        726.64357790	         43.09503770	         -0.25341767	          0.00000000	         -0.03598487	          0.00000000	          0.00000000	          0.00000000	          0.00000000	          0.74222406	          0.00000000	
